HIERARCHY
ROOT Hips
{
	OFFSET -3.958830 18.904000 13.208200
	CHANNELS 6 Xposition Yposition Zposition Zrotation Yrotation Xrotation 
	JOINT LHipJoint
	{
		OFFSET 0.000000 0.000000 0.000000
		CHANNELS 3 Zrotation Yrotation Xrotation
		JOINT LeftUpLeg
		{
			OFFSET 1.800000 -1.400000 0.085000
			CHANNELS 3 Zrotation Yrotation Xrotation
			JOINT LeftLeg
			{
				OFFSET 2.215000 -6.000000 0.000000
				CHANNELS 3 Zrotation Yrotation Xrotation
				JOINT LeftFoot
				{
					OFFSET 2.500000 -6.900000 0.000000
					CHANNELS 3 Zrotation Yrotation Xrotation
					JOINT LeftToeBase
					{
						OFFSET 0.200000 -0.500000 1.950000
						CHANNELS 3 Zrotation Yrotation Xrotation
						End Site
						{
							OFFSET 0.000000 0.000000 0.000000
						}
					}
				}
			}
		}
	}
	JOINT RHipJoint
	{
		OFFSET 0.000000 0.000000 0.000000
		CHANNELS 3 Zrotation Yrotation Xrotation
		JOINT RightUpLeg
		{
			OFFSET -1.800000 -1.400000 0.085000
			CHANNELS 3 Zrotation Yrotation Xrotation
			JOINT RightLeg
			{
				OFFSET -2.215000 -6.000000 0.000000
				CHANNELS 3 Zrotation Yrotation Xrotation
				JOINT RightFoot
				{
					OFFSET -2.500000 -6.900000 0.000000
					CHANNELS 3 Zrotation Yrotation Xrotation
					JOINT RightToeBase
					{
						OFFSET -0.200000 -0.500000 1.950000
						CHANNELS 3 Zrotation Yrotation Xrotation
						End Site
						{
							OFFSET 0.000000 0.000000 0.000000
						}
					}
				}
			}
		}
	}
	JOINT LowerBack
	{
		OFFSET 0.000000 0.000000 0.000000
		CHANNELS 3 Zrotation Yrotation Xrotation
		JOINT Spine
		{
			OFFSET -0.087000 1.940000 -0.288900
			CHANNELS 3 Zrotation Yrotation Xrotation
			JOINT Spine1
			{
				OFFSET 0.000000 1.950000 0.060000
				CHANNELS 3 Zrotation Yrotation Xrotation
				JOINT Neck
				{
					OFFSET 0.000000 0.000000 0.000000
					CHANNELS 3 Zrotation Yrotation Xrotation
					JOINT Neck1
					{
						OFFSET 0.000000 1.600000 0.340000
						CHANNELS 3 Zrotation Yrotation Xrotation
						JOINT Head
						{
							OFFSET 0.000000 1.667000 -0.240000
							CHANNELS 3 Zrotation Yrotation Xrotation
							End Site
							{
								OFFSET 0.000000 0.000000 0.000000
							}
						}
					}
				}
				JOINT LeftShoulder
				{
					OFFSET 0.000000 0.000000 0.000000
					CHANNELS 3 Zrotation Yrotation Xrotation
					JOINT LeftArm
					{
						OFFSET 2.700000 1.550000 -0.730000
						CHANNELS 3 Zrotation Yrotation Xrotation
						JOINT LeftForeArm
						{
							OFFSET 5.450000 0.000000 0.000000
							CHANNELS 3 Zrotation Yrotation Xrotation
							JOINT LeftHand
							{
								OFFSET 3.450000 0.000000 0.000000
								CHANNELS 3 Zrotation Yrotation Xrotation
								JOINT LeftHandIndex1
								{
									OFFSET 0.750000 0.000000 0.000000
									CHANNELS 3 Zrotation Yrotation Xrotation
									End Site
									{
										OFFSET 0.000000 0.000000 0.000000
									}
								}
							}
						}
					}
				}
				JOINT RightShoulder
				{
					OFFSET 0.000000 0.000000 0.000000
					CHANNELS 3 Zrotation Yrotation Xrotation
					JOINT RightArm
					{
						OFFSET -2.700000 1.550000 -0.730000
						CHANNELS 3 Zrotation Yrotation Xrotation
						JOINT RightForeArm
						{
							OFFSET -5.450000 0.000000 0.000000
							CHANNELS 3 Zrotation Yrotation Xrotation
							JOINT RightHand
							{
								OFFSET -3.450000 0.000000 0.000000
								CHANNELS 3 Zrotation Yrotation Xrotation
								JOINT RightHandIndex1
								{
									OFFSET -0.750000 0.000000 0.000000
									CHANNELS 3 Zrotation Yrotation Xrotation
									End Site
									{
										OFFSET 0.000000 0.000000 0.000000
									}
								}
							}
						}
					}
				}
			}
		}
	}
}
MOTION
Frames: 5
Frame Time: 0.016667
0.382910 13.785010 -0.801390 -53.348316 9.331022 16.974944 -15.683184 11.652968 6.357072 -6.674408 -19.654060 -40.060711 -15.318061 10.331371 39.490683 0.785992 6.878402 2.006846 -0.038050 -0.124860 0.257090 18.082740 -9.282780 2.055025 -6.223736 -1.198823 -0.252326 19.809204 -12.981574 25.041455 -0.934787 -5.882339 2.422950 -0.383740 -0.184580 -0.021590 -2.771394 -4.123488 -8.977106 -2.670332 -3.086462 59.962033 -4.195114 -0.938173 10.118771 6.428955 -5.527579 -21.464049 -15.936164 12.130141 36.243484 -6.537520 13.855140 -18.440390 -10.387311 -25.168481 10.013828 -12.508978 -5.222301 -5.507994 21.497673 -7.951750 -2.172099 -3.545341 2.900977 0.545300 -0.299490 0.312580 -0.124800 -0.979472 30.850592 16.470415 12.517720 2.216335 -3.313951 -8.476847 12.130050 0.221707 2.717422 -0.709491 -0.016670 0.071860 0.017620 -0.111130 
0.306790 13.763110 -0.728820 -58.082317 4.875649 14.970822 -15.599750 11.740138 6.285154 -4.266944 -17.640173 -42.609285 -11.050992 10.787838 45.833323 0.803503 7.802377 1.668620 0.010990 -0.064870 0.268200 18.146028 -9.627799 2.024603 -1.645791 -1.281800 -0.904619 9.879544 -9.225160 24.673531 -0.701138 -4.811866 2.782987 -0.308130 -0.170500 -0.007450 -2.924559 -3.495563 -8.759976 -1.583707 -1.916520 57.567493 -5.663497 1.665460 12.423518 5.939444 -5.907372 -20.053025 -15.840161 12.263859 35.563316 -5.323780 13.609740 -20.439360 -9.480639 -23.235034 9.213089 -13.911388 -6.264379 -5.159290 22.046921 -7.930662 -2.459155 -3.545691 2.882537 0.569940 -0.279870 0.312870 -0.109630 -1.145074 29.449232 16.201699 13.680493 1.699151 -3.516817 -9.842839 11.967719 -0.059953 2.665747 -0.782144 -0.045370 0.097140 0.015230 -0.129330 
0.267980 13.751320 -0.635550 -61.059279 1.794597 12.925466 -15.525263 11.929850 6.094118 -0.837735 -15.564649 -42.164727 -12.154458 12.361055 47.887910 0.882101 8.591422 1.403701 -0.039650 -0.146130 0.264950 18.180789 -9.879662 2.106531 3.427514 -1.947275 -3.809591 -4.523894 -4.191333 19.631710 -0.418814 -3.297092 3.303974 -0.326310 -0.202810 -0.060980 -3.022687 -3.115258 -8.632110 -0.784053 -1.150695 56.636355 -7.002387 3.540808 11.818873 6.141481 -5.406040 -19.349488 -15.190305 10.828608 37.271387 -6.362900 12.795370 -20.094100 -9.462637 -21.348882 8.098415 -14.657092 -6.991420 -5.832739 22.405899 -12.027635 -3.280024 -3.447378 2.815419 0.618780 -0.309340 0.299770 -0.137010 -1.712295 27.549224 16.374849 18.107273 -2.906976 -5.012649 -12.421910 11.891013 -0.269556 2.682672 -0.830756 -0.111080 0.111350 0.029510 -0.172550 
0.196230 13.715150 -0.524860 -61.859970 0.359827 9.649516 -15.468919 12.443119 5.495381 -3.517701 -13.067635 -37.145997 -7.348008 9.633948 44.073652 0.706838 7.119317 1.890037 -0.009350 -0.110720 0.291700 18.148752 -10.054635 2.389933 6.430742 -2.400372 -5.137700 -13.470011 -2.175080 16.942521 -0.464587 -3.082149 3.392048 -0.370180 -0.255670 -0.033120 -3.016698 -3.238886 -8.441294 -1.219626 -0.395709 56.226261 -7.741038 4.226813 11.866527 6.618146 -4.551756 -19.355575 -14.194642 10.739585 39.165428 -8.143770 13.945800 -19.347740 -9.025363 -20.324326 7.918331 -14.410076 -7.209569 -5.406388 20.180555 -12.105128 -2.800631 -3.362955 2.851003 0.602810 -0.338920 0.362410 -0.092440 -3.221199 25.925484 16.285944 22.955362 -9.192458 -7.912938 -15.015299 14.241386 -0.704442 2.707051 -0.952216 -0.035780 0.052090 -0.042630 -0.140980 
0.029550 13.679110 -0.417180 -59.336368 -0.034168 8.652180 -15.653639 12.880477 5.276938 -5.895807 -12.302128 -35.050301 -3.426675 8.160192 43.344430 0.571625 6.630040 2.063257 -0.083490 -0.181850 0.238720 17.982335 -9.769381 2.409675 8.413932 -2.001569 -9.151242 -20.625043 -0.526846 16.769817 -0.425471 -3.114682 3.387109 -0.382080 -0.190630 -0.065560 -2.493294 -4.330190 -8.365419 -6.727630 2.465909 51.780387 -5.031607 4.485547 12.621725 6.180870 -4.353309 -18.256164 -13.556350 11.673286 38.500996 -8.735930 15.553220 -18.283620 -7.401168 -17.550774 7.567524 -16.402783 -7.880954 -4.242986 17.347063 -12.299339 -2.393224 -3.398506 2.768386 0.584360 -0.286960 0.300060 -0.114610 -4.223249 22.955075 15.275973 26.201170 -13.779408 -10.894802 -19.784720 15.891721 -1.587087 2.689925 -1.020638 -0.095960 0.090020 0.011960 -0.152650 
